<?xml version="1.0" standalone="no"?><!DOCTYPE svg PUBLIC "-//W3C//DTD SVG 1.1//EN" "http://www.w3.org/Graphics/SVG/1.1/DTD/svg11.dtd"><svg t="1713951049017" class="icon" viewBox="0 0 1024 1024" version="1.1" xmlns="http://www.w3.org/2000/svg" p-id="835" xmlns:xlink="http://www.w3.org/1999/xlink" width="300" height="300"><path d="M142.222222 455.111111c0-113.777778-142.222222-85.333333-113.777778 28.444445s85.333333 142.222222 85.333334 142.222222l28.444444-170.666667z m739.555556 0c0-113.777778 142.222222-85.333333 113.777778 28.444445s-85.333333 142.222222-85.333334 142.222222l-28.444444-170.666667z" fill="#31373D" p-id="836"></path><path d="M928.711111 618.268444c0 309.816889-133.432889 400.696889-416.711111 400.696889-283.249778 0-416.739556-90.88-416.739556-400.696889S228.750222 9.187556 512 9.187556c283.278222 0 416.711111 299.264 416.711111 609.080888z" fill="#31373D" p-id="837"></path><path d="M784.128 654.222222c42.382222-126.805333 59.392-207.985778-12.600889-207.985778H252.472889c-72.021333 0-54.983111 81.180444-12.629333 207.985778C99.669333 972.828444 488.277333 990.520889 512 990.520889S918.840889 960.398222 784.128 654.222222z" fill="#66757F" p-id="838"></path><path d="M426.666667 512.085333a56.888889 56.888889 0 0 1-113.777778 0c0-31.402667 25.486222-28.444444 56.888889-28.444444s56.888889-2.986667 56.888889 28.444444z m284.444444 0a56.888889 56.888889 0 0 1-113.777778 0c0-31.402667 25.486222-28.444444 56.888889-28.444444s56.888889-2.986667 56.888889 28.444444z" fill="#31373D" p-id="839"></path><path d="M402.318222 672.853333a40.618667 28.444444 0 1 0 81.237334 0 40.618667 28.444444 0 1 0-81.237334 0Z" fill="#31373D" p-id="840"></path><path d="M621.681778 672.853333c0 15.729778-18.176 28.444444-40.618667 28.444445-22.471111 0-40.647111-12.714667-40.647111-28.444445 0-15.729778 18.176-28.444444 40.647111-28.444444s40.618667 12.743111 40.618667 28.444444z" fill="#31373D" p-id="841"></path><path d="M597.902222 598.471111c-55.893333-7.395556-85.902222 23.722667-85.902222 23.722667s-30.008889-31.118222-85.930667-23.722667c-89.770667 11.861333-93.44 93.496889-55.153777 88.32 21.788444-2.958222 3.84-26.680889 48.725333-44.259555 44.913778-17.521778 92.359111 18.773333 92.359111 18.773333s47.416889-36.295111 92.330667-18.744889 26.936889 41.301333 48.753777 44.259556c38.286222 5.148444 34.645333-76.487111-55.182222-88.348445z" fill="#99AAB5" p-id="842"></path><path d="M706.417778 853.930667c-34.389333 9.187556-91.136 16.952889-194.417778 16.952889s-160-7.736889-194.417778-16.952889c-91.164444-24.291556-54.698667-49.351111 0-42.012445 54.698667 7.367111 103.281778 11.804444 194.417778 11.804445 91.164444 0 139.776-4.437333 194.417778-11.804445 54.698667-7.338667 91.136 17.720889 0 42.012445z" fill="#31373D" p-id="843"></path><path d="M120.974222 472.888889c39.907556-34.844444-30.663111-107.121778-62.464-72.362667-9.699556 10.609778 26.197333-5.347556 38.001778 30.890667 8.760889 26.794667 0.028444 62.805333 24.462222 41.472z m782.023111 0c-39.879111-34.844444 30.663111-107.121778 62.464-72.362667 9.699556 10.609778-26.197333-5.347556-38.030222 30.890667-8.704 26.794667 0 62.805333-24.433778 41.472z" fill="#66757F" p-id="844"></path></svg>